HIERARCHY
ROOT Pelvis
{
	OFFSET 0.000000 0.000000 0.000000
	CHANNELS 6 Xposition Yposition Zposition Zrotation Yrotation Xrotation 
	JOINT Left_hip
	{
		OFFSET 0.070241 -0.085575 -0.010474
		CHANNELS 3 Zrotation Yrotation Xrotation
		JOINT Left_knee
		{
			OFFSET 0.032125 -0.356873 -0.000555
			CHANNELS 3 Zrotation Yrotation Xrotation
			JOINT Left_ankle
			{
				OFFSET -0.010961 -0.370212 -0.042278
				CHANNELS 3 Zrotation Yrotation Xrotation
				JOINT Left_foot
				{
					OFFSET 0.023322 -0.052281 0.110104
					CHANNELS 3 Zrotation Yrotation Xrotation
					End Site
					{
						OFFSET 0.000000 0.000000 0.000000
					}
				}
			}
		}
	}
	JOINT Right_hip
	{
		OFFSET -0.068518 -0.084320 -0.007402
		CHANNELS 3 Zrotation Yrotation Xrotation
		JOINT Right_knee
		{
			OFFSET -0.037345 -0.364815 -0.003619
			CHANNELS 3 Zrotation Yrotation Xrotation
			JOINT Right_ankle
			{
				OFFSET 0.013394 -0.370006 -0.039954
				CHANNELS 3 Zrotation Yrotation Xrotation
				JOINT Right_foot
				{
					OFFSET -0.019600 -0.045455 0.113223
					CHANNELS 3 Zrotation Yrotation Xrotation
					End Site
					{
						OFFSET 0.000000 0.000000 0.000000
					}
				}
			}
		}
	}
	JOINT Spine1
	{
		OFFSET -0.002404 0.098129 -0.018169
		CHANNELS 3 Zrotation Yrotation Xrotation
		JOINT Spine2
		{
			OFFSET 0.003989 0.127209 -0.001742
			CHANNELS 3 Zrotation Yrotation Xrotation
			JOINT Spine3
			{
				OFFSET 0.001758 0.046641 0.023475
				CHANNELS 3 Zrotation Yrotation Xrotation
				JOINT Neck
				{
					OFFSET -0.003759 0.194901 -0.039982
					CHANNELS 3 Zrotation Yrotation Xrotation
					JOINT Head
					{
						OFFSET 0.003999 0.063756 0.047665
						CHANNELS 3 Zrotation Yrotation Xrotation
						End Site
						{
							OFFSET 0.000000 0.000000 0.000000
						}
					}
				}
				JOINT Left_collar
				{
					OFFSET 0.071816 0.109048 -0.028973
					CHANNELS 3 Zrotation Yrotation Xrotation
					JOINT Left_shoulder
					{
						OFFSET 0.084027 0.032269 -0.006525
						CHANNELS 3 Zrotation Yrotation Xrotation
						JOINT Left_elbow
						{
							OFFSET 0.243854 -0.013992 -0.025905
							CHANNELS 3 Zrotation Yrotation Xrotation
							JOINT Left_wrist
							{
								OFFSET 0.232156 0.008196 -0.000339
								CHANNELS 3 Zrotation Yrotation Xrotation
								JOINT Left_palm
								{
									OFFSET 0.075377 -0.009461 -0.012494
									CHANNELS 3 Zrotation Yrotation Xrotation
									End Site
									{
										OFFSET 0.000000 0.000000 0.000000
									}
								}
							}
						}
					}
				}
				JOINT Right_collar
				{
					OFFSET -0.073768 0.107001 -0.033755
					CHANNELS 3 Zrotation Yrotation Xrotation
					JOINT Right_shoulder
					{
						OFFSET -0.086837 0.032868 -0.009431
						CHANNELS 3 Zrotation Yrotation Xrotation
						JOINT Right_elbow
						{
							OFFSET -0.236446 -0.012544 -0.018747
							CHANNELS 3 Zrotation Yrotation Xrotation
							JOINT Right_wrist
							{
								OFFSET -0.236110 0.006124 -0.004327
								CHANNELS 3 Zrotation Yrotation Xrotation
								JOINT Right_palm
								{
									OFFSET -0.074800 -0.006875 -0.009610
									CHANNELS 3 Zrotation Yrotation Xrotation
									End Site
									{
										OFFSET 0.000000 0.000000 0.000000
									}
								}
							}
						}
					}
				}
			}
		}
	}
}
MOTION
Frames: 10
Frame Time: 0.100000
0.000000 0.000000 0.000000 177.902076 19.482352 -7.410316 -2.379927 3.484913 0.204312 1.967510 -7.565191 -7.817959 -2.438171 25.842363 0.913737 9.827652 -4.469009 -0.610932 3.312263 -4.777192 -0.091941 -1.364278 6.735850 -3.819291 -1.049503 -23.962727 -3.375591 4.601119 7.711671 7.440090 0.142837 2.634151 -2.525049 0.500150 -3.020659 -4.535098 -0.200779 2.381501 -1.785734 -5.175871 -5.153060 6.263942 3.840483 -0.114919 5.120668 -4.677005 2.270800 -10.100314 6.921997 -14.970050 -15.555773 0.742193 12.796858 -4.364792 -6.335525 1.795106 38.164003 -1.173082 -8.476262 -3.305210 7.783062 1.854114 -7.385198 -5.742575 11.357339 -19.812133 -7.850120 -10.594194 -7.521202 2.658633 -1.610605 36.343543 7.975834 9.276656 -5.612876 
-0.000232 0.000027 -0.000148 177.881050 19.838456 -7.464765 -2.419093 3.376362 0.244728 1.963133 -7.777405 -7.863740 -2.407758 25.816885 0.971888 9.762306 -4.427821 -0.591235 3.262589 -4.867010 -0.007371 -1.365130 6.662233 -3.849361 -1.155349 -24.110765 -3.376362 4.676400 7.656833 7.515405 0.150730 2.593716 -2.555084 0.466449 -3.092488 -4.581718 -0.210542 2.343303 -1.708425 -5.224081 -5.208710 6.376495 3.840671 -0.001570 5.125462 -4.684763 2.226582 -10.146867 6.929463 -14.943953 -15.532538 0.727927 12.725985 -4.289429 -6.223374 1.835861 38.247335 -1.211923 -8.484041 -3.258209 7.632945 1.701965 -7.489431 -5.860093 11.099703 -19.858176 -7.886982 -10.655939 -7.487810 2.641405 -1.696791 36.427508 8.068140 9.340879 -5.672009 
-0.000338 0.000099 -0.000552 177.884623 20.068185 -7.554412 -2.456466 3.355538 0.311292 1.942894 -7.921403 -7.885557 -2.451715 25.799711 0.985298 9.811496 -4.458998 -0.583184 3.208452 -4.962324 0.012006 -1.350837 6.557090 -3.712527 -1.197170 -24.176465 -3.416179 4.711818 7.639928 7.486734 0.145344 2.554519 -2.524670 0.424515 -3.126948 -4.571793 -0.229562 2.315150 -1.659322 -5.274003 -5.225220 6.417868 3.836464 0.154124 5.118414 -4.694495 2.220698 -10.124152 6.962122 -14.934634 -15.553901 0.700106 12.701684 -4.286085 -6.115468 1.766374 38.219886 -1.212289 -8.475072 -3.202291 7.513549 1.606775 -7.513574 -6.030206 11.007302 -19.962412 -7.836862 -10.640971 -7.498005 2.575988 -1.650792 36.460786 8.071793 9.351164 -5.651010 
-0.000219 0.000255 -0.001392 177.869977 20.193590 -7.616068 -2.470369 3.337688 0.284012 1.936657 -7.978478 -7.857288 -2.518367 25.764555 0.992442 9.893742 -4.490006 -0.567748 3.194746 -4.997906 0.014715 -1.354054 6.502816 -3.704922 -1.250413 -24.210610 -3.370669 4.756272 7.643231 7.481611 0.147144 2.554113 -2.521038 0.371954 -3.137767 -4.511745 -0.263127 2.316945 -1.676651 -5.297755 -5.249246 6.527850 3.824237 0.206784 5.230540 -4.786097 2.179554 -10.145843 7.080888 -14.988505 -15.560666 0.765666 12.506413 -4.361511 -6.018192 1.642829 38.175247 -1.279755 -8.503043 -3.205569 7.474845 1.611273 -7.517118 -6.195667 10.960796 -19.990343 -7.826208 -10.542258 -7.642356 2.544461 -1.552667 36.234189 8.101051 9.380014 -5.625758 
0.000109 0.000623 -0.002816 177.853377 20.120160 -7.786680 -2.456709 3.383126 0.358599 1.955092 -7.960393 -7.853931 -2.600973 25.830363 1.018601 10.125721 -4.546016 -0.648314 3.200541 -4.983293 0.024133 -1.326256 6.527911 -3.607393 -1.321968 -24.243167 -3.314201 4.831000 7.827390 7.581757 0.105019 2.611081 -2.566606 0.393590 -3.146117 -4.219970 -0.268097 2.380525 -1.729198 -5.364660 -5.311021 6.657477 3.835105 0.288130 5.561427 -5.165941 1.992113 -10.075105 7.613286 -14.893056 -15.865657 0.793570 10.794795 -5.599385 -5.812988 1.548745 37.116582 -1.853126 -8.658349 -3.344104 7.846291 2.027089 -7.439169 -6.768061 11.209136 -20.392038 -7.999344 -9.847167 -8.771936 2.228163 -1.571486 35.551390 8.375874 9.434014 -5.638712 
0.001027 0.001372 -0.005041 177.809003 19.824630 -8.178649 -2.368795 3.555390 0.698928 2.052108 -7.852902 -8.019498 -3.075943 26.006227 1.008484 11.106770 -4.729624 -1.070142 3.266953 -4.792963 0.261758 -1.325537 6.538767 -3.681098 -1.384018 -24.219684 -3.132262 4.773527 8.330727 7.629314 -0.055031 2.802157 -2.798436 0.442353 -3.113013 -3.307543 -0.271716 2.564202 -2.046467 -5.344466 -5.411118 6.593290 4.099042 0.422047 6.063832 -6.499495 1.202491 -9.819116 8.955331 -15.155631 -16.158883 2.658017 2.945680 -7.661079 -2.705876 -0.837526 33.985841 -3.685947 -8.971955 -3.474859 8.917797 3.168705 -7.135562 -7.326574 11.517868 -20.707730 -8.842779 -4.672165 -11.664102 -0.442866 0.337276 32.116467 9.349998 9.513817 -5.039140 
0.002614 0.002093 -0.008673 177.712009 19.605037 -8.849867 -2.179977 3.695514 1.151439 2.037797 -7.459440 -8.070275 -3.616585 25.789066 1.106404 12.250201 -4.665831 -1.917807 3.324226 -4.595985 0.536103 -1.282377 6.130079 -3.475001 -1.009271 -23.858429 -3.051725 4.157077 8.836081 7.185696 -0.348216 2.954760 -2.739335 0.590162 -3.088660 -2.389767 -0.202855 2.696239 -2.202186 -5.237989 -5.226839 5.896467 4.443885 0.288899 6.139209 -6.857084 0.019065 -9.412726 9.494865 -16.358009 -14.992624 5.102291 -9.673991 -6.728468 2.395283 -5.383751 29.237475 -5.563642 -8.870563 -3.284540 9.388189 4.688189 -6.790996 -6.487057 12.238473 -19.178049 -9.988016 6.458816 -12.994467 -4.472290 4.153359 25.819583 10.262787 9.114536 -3.754910 
0.004443 0.002481 -0.013043 177.565620 19.726797 -9.324087 -2.046945 3.634289 1.136370 1.934792 -6.166277 -7.736936 -3.849733 24.199966 1.532487 12.408743 -3.584056 -3.094059 3.320717 -4.259043 0.406806 -1.226536 4.655418 -2.871921 -0.857432 -22.425796 -3.038529 4.636887 8.389772 6.735766 -0.595829 2.728430 -2.550812 0.813097 -2.818667 -1.910043 -0.353409 2.606958 -1.967304 -4.213162 -4.213450 4.859866 3.672304 -0.329737 5.548840 -5.994856 0.681758 -9.369945 6.543148 -17.908451 -10.517367 10.504793 -30.915953 -4.034784 17.224351 -14.192133 19.143308 -6.440479 -7.185223 -0.620559 8.957640 4.361638 -6.686348 -2.284981 13.201889 -13.899181 -13.244009 26.629348 -11.388923 -17.068058 11.587003 15.830815 10.459735 7.586334 -0.562297 
0.005716 0.002641 -0.017043 177.000847 20.185212 -9.072236 -1.442017 5.082142 0.170484 2.062238 -5.477036 -7.114182 -3.750662 17.968621 2.321102 6.356165 0.211827 -7.778951 3.505131 -5.502939 -0.514557 -1.361753 4.831381 -2.283220 4.436371 -19.344682 -4.272605 1.286561 8.813532 7.578653 -0.430564 2.544269 -3.080176 0.851532 -2.571767 -1.053646 -0.234343 2.817491 -2.833103 -3.337799 -2.848931 3.390553 3.205587 -2.566324 6.653199 -3.003134 0.472178 -10.993587 0.959316 -15.485855 -1.609439 10.552419 -61.613202 6.657741 39.161202 -20.161980 15.380603 -12.999268 -12.017517 -9.310880 7.001615 4.243129 -4.262333 3.445748 8.245542 -6.167798 -16.476391 56.091291 -5.931085 -35.989575 16.907416 3.499282 15.797591 10.454207 -5.765753 
0.006041 0.002326 -0.019144 176.820134 21.541317 -8.578937 -1.536929 4.760067 -0.962201 1.902376 -4.322654 -6.404758 -3.030459 15.581155 3.293353 3.970882 2.139735 -10.641785 3.436267 -5.837744 -1.562839 -1.438383 3.870397 -1.420009 6.129982 -18.542736 -5.133474 0.278271 8.996813 8.501318 0.034828 2.331734 -2.849207 0.513037 -2.386615 -1.584288 -0.199635 2.712992 -2.203106 -3.640654 -3.068579 2.539647 2.359307 -2.722447 5.028211 -1.236376 0.717073 -10.707982 -3.261009 -13.294807 6.655892 -112.209750 -81.077404 140.512536 52.118494 -24.101428 15.770501 -17.330701 -16.008817 -14.700861 4.318539 2.977238 -2.558351 6.364113 2.828806 2.908776 68.049057 83.031912 89.280287 -49.213623 21.598455 0.586611 20.230277 13.493454 -9.417267 
